# xmcd CD database file
#
# Track frame offsets:
#	150
#	711
#	38641
#	57654
#	66169
#	103684
#	113384
#	114964
#	142887
#	163854
#	164633
#	182242
#
# Disc length: 2963 seconds
#
# Revision: 0
# Processed by: cddbd v1.5PL3 Copyright (c) Steve Scherf et al.
# Submitted via: CDex 1.51
#
DISCID=9e0b910c
DTITLE=SQUAREPUSHER - LIVE IN PHOENIX - 04-18-2004
DYEAR=2004
DGENRE=Salsa
TTITLE0=00 - Fucking Sound Man
TTITLE1=01 - Venus No.17
TTITLE2=02 - Talk About You and Me
TTITLE3=03 - Bass Solo I
TTITLE4=04 - Dimotane Co
TTITLE5=05 - Bass Solo II
TTITLE6=06 - Quick Message To The Sound Man
TTITLE7=07 - Unknown
TTITLE8=08 - Bass Solo III
TTITLE9=09 - Whoops
TTITLE10=10 - I dont
TTITLE11=PIX
EXTD=YEAR: 2004
EXTT0=
EXTT1=
EXTT2=
EXTT3=
EXTT4=
EXTT5=
EXTT6=
EXTT7=
EXTT8=
EXTT9=
EXTT10=
EXTT11=
PLAYORDER=
